<svg width="54" height="66" viewBox="0 0 54 66" fill="none" xmlns="http://www.w3.org/2000/svg">
<path d="M26.8201 43.8397C18.0401 43.8397 10.8901 36.6898 10.8901 27.9098V16.2297C10.8901 7.44974 18.0401 0.299805 26.8201 0.299805C35.6001 0.299805 42.7501 7.44974 42.7501 16.2297V27.9098C42.7501 36.6898 35.6101 43.8397 26.8201 43.8397ZM26.8201 5.46973C20.8901 5.46973 16.0601 10.2897 16.0601 16.2297V27.9098C16.0601 33.8398 20.8801 38.6698 26.8201 38.6698C32.7601 38.6698 37.5801 33.8498 37.5801 27.9098V16.2297C37.5801 10.2897 32.7501 5.46973 26.8201 5.46973Z" fill="#00CC49"/>
<path d="M26.8201 53.5797C7.46008 53.5797 1.04005 33.5497 0.970049 33.3497C0.550049 31.9897 1.31007 30.5398 2.68007 30.1098C4.04007 29.6898 5.49006 30.4498 5.92006 31.8098C5.95006 31.9098 7.33009 36.1598 10.6401 40.3098C14.9301 45.6798 20.3801 48.3998 26.8301 48.3998C28.2601 48.3998 29.4201 49.5598 29.4201 50.9898C29.4201 52.4198 28.2501 53.5797 26.8201 53.5797Z" fill="#00CC49"/>
<path d="M26.82 65.4595C25.39 65.4595 24.23 64.2995 24.23 62.8695V48.3995H26.82C33.73 48.3995 39.47 45.2895 43.87 39.1595C44.7 37.9995 46.32 37.7294 47.48 38.5694C48.64 39.3994 48.91 41.0196 48.07 42.1796C44.65 46.9496 38.71 52.5595 29.4 53.4495V62.8695C29.41 64.2995 28.25 65.4595 26.82 65.4595Z" fill="#00CC49"/>
<path d="M49.9399 36.1395C51.906 36.1395 53.4999 34.5456 53.4999 32.5795C53.4999 30.6133 51.906 29.0195 49.9399 29.0195C47.9737 29.0195 46.3799 30.6133 46.3799 32.5795C46.3799 34.5456 47.9737 36.1395 49.9399 36.1395Z" fill="#00CC49"/>
</svg>
