<svg width="16" height="12" viewBox="0 0 16 12" fill="none" xmlns="http://www.w3.org/2000/svg">
<g clip-path="url(#clip0_194_913)">
<path d="M15.3044 5.3125H0.695625C0.311563 5.3125 0 5.62041 0 5.99998C0 6.37955 0.311563 6.68746 0.695625 6.68746H15.3044C15.6884 6.68746 16 6.37955 16 5.99998C16 5.62041 15.6884 5.3125 15.3044 5.3125Z" fill="#222222"/>
<path d="M0.695625 1.87496H15.3044C15.6884 1.87496 16 1.56705 16 1.18748C16 0.807915 15.6884 0.5 15.3044 0.5H0.695625C0.311563 0.5 0 0.807915 0 1.18748C0 1.56705 0.311563 1.87496 0.695625 1.87496Z" fill="#222222"/>
<path d="M15.3044 10.125H0.695625C0.311563 10.125 0 10.4329 0 10.8125C0 11.192 0.311563 11.5 0.695625 11.5H15.3044C15.6884 11.5 16 11.192 16 10.8125C16 10.4329 15.6884 10.125 15.3044 10.125Z" fill="#222222"/>
</g>
<defs>
<clipPath id="clip0_194_913">
<rect width="16" height="11" fill="white" transform="translate(0 0.5)"/>
</clipPath>
</defs>
</svg>
