<svg width="14" height="14" viewBox="0 0 14 14" fill="none" xmlns="http://www.w3.org/2000/svg">
<g clip-path="url(#clip0_206_1226)">
<path d="M5.76283 7.00014L0.256621 1.4942C-0.0851755 1.1524 -0.0851755 0.598145 0.256621 0.256348C0.598418 -0.0854492 1.15268 -0.0854492 1.49447 0.256348L7.00041 5.76283L12.5061 0.256621C12.8479 -0.0854492 13.4021 -0.0854492 13.7437 0.256621C14.0852 0.598691 14.0854 1.15268 13.7437 1.49447L8.23717 7.00041L13.7437 12.5061C14.0854 12.8479 14.0854 13.4021 13.7437 13.7439C13.4019 14.0857 12.8476 14.0857 12.5058 13.7439L6.99986 8.23744L1.49393 13.7439C1.15213 14.0857 0.597871 14.0857 0.256074 13.7439C-0.0857229 13.4021 -0.0857229 12.8479 0.256074 12.5061L5.76256 7.00014H5.76283Z" fill="#222222"/>
</g>
<defs>
<clipPath id="clip0_206_1226">
<rect width="14" height="14" fill="white" transform="matrix(-1 0 0 1 14 0)"/>
</clipPath>
</defs>
</svg>
