<svg width="16" height="11" viewBox="0 0 16 11" fill="#000" xmlns="http://www.w3.org/2000/svg">
<g clip-path="url(#clip0_196_663)">
<path d="M15.3044 4.8125H0.695625C0.311563 4.8125 0 5.12041 0 5.49998C0 5.87955 0.311563 6.18746 0.695625 6.18746H15.3044C15.6884 6.18746 16 5.87955 16 5.49998C16 5.12041 15.6884 4.8125 15.3044 4.8125Z" fill="#222222"/>
<path d="M0.695625 1.37496H15.3044C15.6884 1.37496 16 1.06705 16 0.687481C16 0.307915 15.6884 0 15.3044 0H0.695625C0.311563 0 0 0.307915 0 0.687481C0 1.06705 0.311563 1.37496 0.695625 1.37496Z" fill="#222222"/>
<path d="M15.3044 9.625H0.695625C0.311563 9.625 0 9.93292 0 10.3125C0 10.692 0.311563 11 0.695625 11H15.3044C15.6884 11 16 10.692 16 10.3125C16 9.93292 15.6884 9.625 15.3044 9.625Z" fill="#222222"/>
</g>
<defs>
<clipPath id="clip0_196_663">
<rect width="16" height="11" fill="#000"/>
</clipPath>
</defs>
</svg>
