<svg width="16" height="24" viewBox="0 0 16 24" fill="none" xmlns="http://www.w3.org/2000/svg">
<g clip-path="url(#clip0_194_558)">
<path d="M9.00009 3V0.999844C9.00009 0.447656 8.55243 0 8.00023 0C7.44804 0 7.00038 0.447656 7.00038 0.999844V3C3.13597 3.00422 0.00421879 6.13594 0 9.99984V15.9998C0 20.4183 3.58175 24 8.00023 24C12.4187 24 16.0005 20.4183 16.0005 15.9998V9.99984C15.9962 6.13547 12.8645 3.00422 9.00056 3H9.00009ZM14.0003 15.9998C14.0003 19.3134 11.3139 21.9998 8.00023 21.9998C4.68661 21.9998 2.00018 19.3134 2.00018 15.9998V9.99984C2.00346 7.23984 4.24035 5.00297 7.00038 4.99969H9.00056C11.7606 5.00297 13.9975 7.23984 14.0008 9.99984V15.9998H14.0003Z" fill="white"/>
<path d="M7.99985 7C7.44766 7 7 7.44766 7 7.99984V10C7 10.5522 7.44766 10.9998 7.99985 10.9998C8.55205 10.9998 8.99971 10.5522 8.99971 10V7.99984C8.99971 7.44766 8.55205 7 7.99985 7Z" fill="white"/>
</g>
<defs>
<clipPath id="clip0_194_558">
<rect width="16" height="24" fill="white"/>
</clipPath>
</defs>
</svg>
