<svg width="147" height="117" viewBox="0 0 147 117" fill="none" xmlns="http://www.w3.org/2000/svg">
<path d="M116.55 82.95L109.93 82.42C108.73 82.32 107.57 82.87 106.89 83.86C106.2 84.85 106.09 86.13 106.6 87.22L115.07 105.38L108.95 108.24L100.48 90.08C99.9701 88.99 98.9201 88.25 97.7201 88.14C97.6201 88.13 97.5101 88.13 97.4101 88.13C96.3201 88.13 95.3001 88.65 94.6601 89.55L90.8101 94.96L90.5401 60.79L116.55 82.95ZM129.29 0.459961H17.2701C7.95013 0.459961 0.370117 8.03999 0.370117 17.36V50.98C0.370117 60.3 7.95013 67.87 17.2701 67.87H73.2801C75.1501 67.87 76.6601 66.36 76.6601 64.49C76.6601 62.62 75.1501 61.11 73.2801 61.11H17.2701C11.6801 61.11 7.13013 56.56 7.13013 50.97V17.35C7.13013 11.76 11.6801 7.20996 17.2701 7.20996H129.29C134.88 7.20996 139.43 11.76 139.43 17.35V50.97C139.43 56.56 134.88 61.11 129.29 61.11H101.34L89.2801 50.83C88.2701 49.97 86.8601 49.78 85.6601 50.34C84.4601 50.9 83.7001 52.1101 83.7101 53.4301L84.1201 105.44C84.1301 106.9 85.0901 108.2 86.4801 108.64C87.8801 109.08 89.4001 108.57 90.2501 107.38L96.7901 98.1899L104.23 114.15C104.8 115.38 106.02 116.1 107.29 116.1C107.77 116.1 108.25 116 108.72 115.78L120.97 110.07C121.78 109.69 122.41 109.01 122.72 108.16C123.03 107.32 122.99 106.39 122.61 105.58L115.17 89.62L126.41 90.52C127.87 90.64 129.24 89.7999 129.8 88.4399C130.36 87.0899 129.99 85.53 128.87 84.58L109.27 67.87H129.29C138.61 67.87 146.19 60.29 146.19 50.98V17.36C146.19 8.02999 138.61 0.459961 129.29 0.459961Z" fill="white"/>
</svg>
