<svg width="121" height="121" viewBox="0 0 121 121" fill="none" xmlns="http://www.w3.org/2000/svg">
<path d="M115.13 115.13H5.42004V33.4795H115.13V115.13ZM19.86 5.40955H100.69L113.36 28.3695H7.19006L19.86 5.40955ZM120.17 30.3595C120.16 30.3095 120.14 30.2595 120.12 30.2095C120.08 30.0595 120.02 29.9195 119.95 29.7896C119.94 29.7596 119.93 29.7295 119.91 29.6995L104.42 1.62952C103.97 0.819517 103.11 0.30957 102.19 0.30957H18.3401C17.4101 0.30957 16.56 0.819517 16.11 1.62952L0.630066 29.6995C0.610066 29.7295 0.610088 29.7596 0.590088 29.7896C0.520088 29.9195 0.470054 30.0595 0.430054 30.2095C0.420054 30.2595 0.400066 30.3095 0.380066 30.3595C0.340066 30.5395 0.310059 30.7296 0.310059 30.9296V117.68C0.310059 119.09 1.45005 120.229 2.86005 120.229H117.68C119.09 120.229 120.23 119.09 120.23 117.68V30.9695V30.9296C120.24 30.7296 120.21 30.5395 120.17 30.3595Z" fill="white"/>
<path d="M49.3102 49.2998C52.6802 45.9298 57.1702 44.0697 61.9402 44.0697C66.7102 44.0697 71.1903 45.9298 74.5703 49.2998C81.5303 56.2598 81.5303 67.5998 74.5703 74.5598C71.2003 77.9298 66.7102 79.7898 61.9402 79.7898C57.1702 79.7898 52.6802 77.9298 49.3102 74.5598C45.9402 71.1898 44.0803 66.6998 44.0803 61.9298C44.0703 57.1598 45.9302 52.6698 49.3102 49.2998ZM61.9402 84.8898C68.0702 84.8898 73.8402 82.4998 78.1802 78.1698C87.1302 69.2198 87.1302 54.6497 78.1802 45.6897C73.8402 41.3497 68.0802 38.9697 61.9402 38.9697C55.8002 38.9697 50.0403 41.3597 45.7003 45.6897C41.3603 50.0297 38.9702 55.7998 38.9702 61.9298C38.9702 68.0598 41.3603 73.8298 45.7003 78.1698C50.0403 82.5098 55.8002 84.8898 61.9402 84.8898Z" fill="white"/>
<path d="M88.5899 81.3699L103.43 96.2098C104.39 97.1698 104.92 98.4498 104.92 99.8198C104.92 101.19 104.39 102.47 103.43 103.43C101.5 105.36 98.1399 105.36 96.2099 103.43L81.3699 88.5898C82.8199 87.6798 84.1599 86.6099 85.3799 85.3899C86.5999 84.1699 87.6799 82.8199 88.5899 81.3699ZM76.1199 85.5798L72.6299 87.0599L92.6099 107.04C94.5399 108.97 97.0999 110.03 99.8299 110.03C102.56 110.03 105.12 108.97 107.05 107.04C108.98 105.11 110.04 102.55 110.04 99.8198C110.04 97.0898 108.98 94.5299 107.05 92.5999L87.0699 72.6299L85.5899 76.1199C84.6899 78.2499 83.4099 80.1599 81.7799 81.7799C80.1599 83.3999 78.2499 84.6798 76.1199 85.5798Z" fill="white"/>
</svg>
