<svg width="149" height="115" viewBox="0 0 149 115" fill="none" xmlns="http://www.w3.org/2000/svg">
<path d="M84.8802 39.2793H20.4802C18.6502 39.2793 17.1802 40.7592 17.1802 42.5792C17.1802 44.3992 18.6602 45.8893 20.4802 45.8893H84.8802C86.7102 45.8893 88.1802 44.4092 88.1802 42.5792C88.1802 40.7592 86.7102 39.2793 84.8802 39.2793Z" fill="white"/>
<path d="M61.9401 60.6895H20.4702C18.6402 60.6895 17.1602 62.1695 17.1602 63.9995C17.1602 65.8295 18.6402 67.2996 20.4702 67.2996H61.9401C63.7701 67.2996 65.2402 65.8195 65.2402 63.9995C65.2402 62.1595 63.7601 60.6895 61.9401 60.6895Z" fill="white"/>
<path d="M141.85 68.8098C141.85 69.8698 141.41 70.8298 140.72 71.5298V71.5398C140.03 72.2298 139.06 72.6598 138 72.6598H135.74V72.6698C135.55 72.6698 135.35 72.6897 135.14 72.7297C133.35 73.0597 132.17 74.7697 132.49 76.5697L134.91 89.6198L113.72 73.5498C113.13 72.9998 112.34 72.6698 111.48 72.6698H104.38V53.8698H128.51C130.34 53.8698 131.81 52.3897 131.81 50.5697C131.81 48.7497 130.33 47.2698 128.51 47.2698H104.38V32.4797H128.51C130.34 32.4797 131.81 30.9998 131.81 29.1798C131.81 27.3598 130.33 25.8798 128.51 25.8798H104.38V24.9298C104.38 22.0598 103.21 19.4498 101.32 17.5498L101.3 17.5298C99.4002 15.6298 96.7902 14.4597 93.9202 14.4597H51.6302V10.7397C51.6302 9.72975 52.0102 8.81977 52.6402 8.13977L52.7702 8.01978C53.4702 7.31978 54.4302 6.88977 55.4902 6.88977H137.99C139.06 6.88977 140.02 7.31977 140.71 8.00977L140.72 8.01978C141.41 8.70977 141.84 9.66975 141.84 10.7397L141.85 68.8098ZM97.7802 75.9697V82.9998C97.7802 84.0598 97.3402 85.0197 96.6502 85.7197L96.5302 85.8497C95.8502 86.4797 94.9402 86.8597 93.9302 86.8597H37.9302C37.0602 86.8597 36.2802 87.1897 35.6902 87.7397L14.5002 103.81L16.9202 90.7598C17.2502 88.9698 16.0602 87.2498 14.2802 86.9198C14.0802 86.8798 13.8802 86.8698 13.6802 86.8698H11.4202C10.3602 86.8698 9.4002 86.4297 8.7002 85.7397L8.57019 85.6198C7.95019 84.9398 7.56018 84.0198 7.56018 83.0198V24.9198C7.56018 23.8498 7.99018 22.8897 8.68018 22.1997H8.69019C9.39019 21.4997 10.3502 21.0697 11.4102 21.0697H48.3201H93.9102C94.9802 21.0697 95.9402 21.4997 96.6302 22.1897L96.6402 22.1997C97.3302 22.8897 97.7602 23.8498 97.7602 24.9198V75.9697H97.7802ZM145.4 3.33972L145.38 3.3197C143.48 1.4297 140.87 0.259766 138 0.259766H55.5002C52.6102 0.259766 50.0002 1.42971 48.1002 3.32971L47.9102 3.53979C46.1302 5.4198 45.0302 7.94974 45.0302 10.7297V14.4497H11.4302C8.54018 14.4497 5.93021 15.6198 4.03021 17.5198C2.13021 19.4198 0.950195 22.0298 0.950195 24.8998V82.9998C0.950195 85.7698 2.0402 88.2998 3.8302 90.1798L4.0202 90.3898C5.5402 91.9098 7.52017 92.9697 9.74017 93.3297L6.47015 110.98C6.31015 111.86 6.5002 112.8 7.0802 113.56C8.1802 115 10.2402 115.29 11.6902 114.19L39.0102 93.4597H93.9202C96.6902 93.4597 99.2202 92.3697 101.11 90.5797L101.32 90.3898C103.21 88.4998 104.39 85.8798 104.39 82.9998V79.2798H110.4L137.72 100.01C139.17 101.11 141.23 100.83 142.33 99.3798C142.91 98.6198 143.11 97.6698 142.95 96.7898L139.68 79.1398C141.89 78.7798 143.87 77.7197 145.39 76.1997H145.4C147.29 74.3097 148.47 71.6898 148.47 68.8098V10.7197C148.47 7.84973 147.3 5.23972 145.4 3.33972Z" fill="white"/>
</svg>
