<svg width="202" height="202" viewBox="0 0 202 202" fill="none" xmlns="http://www.w3.org/2000/svg">
<path d="M101.01 201.58C74.6701 201.58 49.8401 191.47 30.9501 173.07L29.2501 171.3C10.7801 152.45 0.620117 127.59 0.620117 101.18C0.620117 74.8601 10.7501 50.0401 29.1801 31.1401L30.9401 29.4001C49.7301 10.9701 74.5701 0.830078 101.01 0.830078C127.36 0.830078 152.18 10.9401 171.05 29.3401L172.82 31.1201C191.25 49.9801 201.38 74.8101 201.38 101.18C201.38 127.55 191.26 152.39 172.85 171.27L171.07 173.05C152.21 191.46 127.38 201.58 101.01 201.58ZM39.4401 161.08L40.3201 161.96C56.5601 178.14 78.1101 187.06 101.01 187.06C123.9 187.06 145.46 178.15 161.7 161.96L162.3 161.36L162.33 161.25C178.14 145.18 186.83 123.88 186.83 101.18C186.83 78.4301 178.06 57.05 162.12 40.91L161.7 40.4601C145.51 24.2801 123.95 15.36 101 15.36C78.0501 15.36 56.5001 24.2701 40.3101 40.4601L39.4301 41.3401V41.41C23.8001 57.52 15.2101 78.7001 15.2101 101.18C15.2101 123.72 23.8001 144.9 39.4301 160.96V161.08H39.4401Z" fill="#A5A5A5"/>
<path d="M101.01 130.5C96.9898 130.5 93.7197 127.24 93.7197 123.24V50.9905C93.7197 46.9905 96.9898 43.7305 101.01 43.7305C105.08 43.7305 108.27 46.9205 108.27 50.9905V123.24C108.27 127.24 105.02 130.5 101.01 130.5Z" fill="#A5A5A5"/>
<path d="M101.02 160.33C96.0703 160.33 92.0303 156.31 92.0303 151.37C92.0303 146.44 96.0603 142.42 101.02 142.42C105.96 142.42 109.97 146.44 109.97 151.37C109.97 156.4 106.04 160.33 101.02 160.33Z" fill="#A5A5A5"/>
</svg>
